<svg width="12" height="12" viewBox="0 0 12 12" fill="#C8C8C8" xmlns="http://www.w3.org/2000/svg">
<g id="icon/math/close">
<path id="icon" fill-rule="evenodd" clip-rule="evenodd" d="M2.22725 2.22725C2.44692 2.00758 2.80308 2.00758 3.02275 2.22725L6 5.2045L8.97725 2.22725C9.19692 2.00758 9.55308 2.00758 9.77275 2.22725C9.99242 2.44692 9.99242 2.80308 9.77275 3.02275L6.7955 6L9.77275 8.97725C9.99242 9.19692 9.99242 9.55308 9.77275 9.77275C9.55308 9.99242 9.19692 9.99242 8.97725 9.77275L6 6.7955L3.02275 9.77275C2.80308 9.99242 2.44692 9.99242 2.22725 9.77275C2.00758 9.55308 2.00758 9.19692 2.22725 8.97725L5.2045 6L2.22725 3.02275C2.00758 2.80308 2.00758 2.44692 2.22725 2.22725Z"/>
</g>
</svg>
