<svg width="30" height="30" viewBox="0 0 30 30" fill="white" xmlns="http://www.w3.org/2000/svg">
<path d="M12.3422 5.3748C13.221 5.2277 14.1105 5.1546 15.0015 5.15628C20.1561 5.1567 23.7754 7.48964 26.0726 9.78691C27.2174 10.9316 28.0422 12.0739 28.5827 12.9324C28.8537 13.3627 29.0552 13.725 29.1914 13.985C29.2596 14.1151 29.3115 14.2199 29.3478 14.2952C29.5094 14.6588 29.4986 15.3636 29.337 15.7272C29.294 15.8158 29.2321 15.9393 29.1507 16.0922C28.9879 16.3978 28.7463 16.8224 28.4203 17.3209C27.7702 18.3151 26.7734 19.6208 25.383 20.8646C24.8041 21.3823 23.9151 21.3328 23.3973 20.754C22.8796 20.1751 22.9291 19.2861 23.5079 18.7683C24.6722 17.7269 25.5153 16.6245 26.0664 15.7817C26.2632 15.4806 26.4214 15.2149 26.5423 15.0001C26.4507 14.8373 26.3377 14.6454 26.2027 14.4309C25.7471 13.7074 25.0486 12.7403 24.0839 11.7757C22.1628 9.85457 19.2201 7.96878 15.0001 7.96878H14.9983C14.2643 7.96733 13.5305 8.02752 12.8065 8.1487C12.0405 8.27693 11.3156 7.75991 11.1874 6.99392C11.0592 6.22793 11.5762 5.50302 12.3422 5.3748Z"/>
<path d="M14.4974 10.1328C14.642 9.36975 15.3778 8.86836 16.1408 9.01295C17.4375 9.25863 18.6191 9.9194 19.5072 10.8955C20.3954 11.8717 20.9419 13.1102 21.0644 14.4243C21.1365 15.1976 20.568 15.8829 19.7947 15.955C19.0214 16.027 18.3361 15.4586 18.264 14.6853C18.1982 13.9789 17.9044 13.3131 17.4269 12.7883C16.9495 12.2636 16.3143 11.9084 15.6173 11.7763C14.8542 11.6317 14.3528 10.8959 14.4974 10.1328Z"/>
<path fill-rule="evenodd" clip-rule="evenodd" d="M4.6792 3.64697C5.25387 3.12454 6.14325 3.16689 6.66568 3.74156L25.4157 24.3666C25.9381 24.9412 25.8958 25.8306 25.3211 26.3531C24.7464 26.8755 23.857 26.8331 23.3346 26.2585L20.9797 23.6681C19.0878 24.4584 17.052 24.8597 14.9943 24.8437C9.8421 24.8419 6.22425 22.5097 3.92765 20.2131C2.78292 19.0683 1.95807 17.926 1.41755 17.0676C1.1466 16.6372 0.945083 16.275 0.808883 16.015C0.740732 15.8849 0.688774 15.7801 0.65251 15.7047C0.490949 15.3412 0.551872 14.5345 0.712789 14.1715C0.787565 14.0218 0.896977 13.8125 1.04216 13.557C1.3321 13.0468 1.76821 12.3479 2.36412 11.5697C3.29901 10.3489 4.64676 8.90753 6.46378 7.70055L4.5846 5.63346C4.06217 5.05878 4.10452 4.1694 4.6792 3.64697ZM9.97135 11.5589C9.55043 12.1741 9.24365 12.8647 9.07032 13.598C8.78737 14.7949 8.87324 16.0494 9.31664 17.1967C9.76003 18.3439 10.5402 19.3301 11.5546 20.0256C12.5682 20.7207 13.7684 21.0929 14.9974 21.0936C16.0379 21.0971 17.0533 20.8322 17.9498 20.3352L18.9416 21.4262C17.6766 21.8365 16.3497 22.0421 15.0116 22.0312L15.0001 22.0312C10.7802 22.0312 7.83747 20.1454 5.91638 18.2243C4.95173 17.2597 4.25315 16.2926 3.79758 15.569C3.66237 15.3543 3.54928 15.1621 3.45763 14.9993L3.48741 14.9465C3.72482 14.5288 4.09145 13.94 4.59709 13.2797C5.46111 12.1514 6.70817 10.8439 8.38254 9.81119L9.97135 11.5589ZM15.956 18.142L11.9657 13.7526C11.9003 13.9116 11.8473 14.0762 11.8074 14.245C11.655 14.8895 11.7013 15.565 11.94 16.1827C12.1788 16.8005 12.5989 17.3315 13.1451 17.706C13.6913 18.0805 14.3389 18.281 15.0012 18.2811L15.0055 18.2811C15.3302 18.2823 15.6504 18.2347 15.956 18.142Z"/>
</svg>
