<svg width="30" height="30" viewBox="0 0 30 30" fill="white" xmlns="http://www.w3.org/2000/svg">
<path fill-rule="evenodd" clip-rule="evenodd" d="M3.92779 9.78688C6.22527 7.4894 9.845 5.15625 15.0003 5.15625C20.1556 5.15625 23.7753 7.4894 26.0728 9.78688C27.2175 10.9316 28.0424 12.0739 28.5829 12.9324C28.8538 13.3627 29.0553 13.7249 29.1915 13.9849C29.2597 14.115 29.3116 14.2199 29.3479 14.2952C29.5095 14.6588 29.5095 15.3412 29.3479 15.7048C29.3116 15.7801 29.2597 15.885 29.1915 16.0151C29.0553 16.2751 28.8538 16.6373 28.5829 17.0676C28.0424 17.9261 27.2175 19.0684 26.0728 20.2131C23.7753 22.5106 20.1556 24.8438 15.0003 24.8438C9.845 24.8438 6.22527 22.5106 3.92779 20.2131C2.78307 19.0684 1.95822 17.9261 1.41769 17.0676C1.14674 16.6373 0.945228 16.2751 0.809028 16.0151C0.740876 15.885 0.688919 15.7801 0.652656 15.7048C0.491052 15.3412 0.490647 14.6588 0.65225 14.2952C0.688513 14.2199 0.740876 14.115 0.809028 13.9849C0.945227 13.7249 1.14674 13.3627 1.41769 12.9324C1.95822 12.0739 2.78307 10.9316 3.92779 9.78688ZM5.91653 11.7756C7.83762 9.85453 10.7804 7.96875 15.0003 7.96875C19.2202 7.96875 22.163 9.85453 24.084 11.7756C25.0487 12.7403 25.7473 13.7074 26.2029 14.4309C26.3379 14.6454 26.4508 14.8373 26.5424 15C26.4508 15.1627 26.3379 15.3546 26.2029 15.5691C25.7473 16.2926 25.0487 17.2597 24.084 18.2244C22.163 20.1455 19.2202 22.0312 15.0003 22.0312C10.7804 22.0312 7.83762 20.1455 5.91653 18.2244C4.95188 17.2597 4.25329 16.2926 3.79772 15.5691C3.6627 15.3546 3.54973 15.1627 3.45815 15C3.54973 14.8373 3.6627 14.6454 3.79772 14.4309C4.25329 13.7074 4.95188 12.7403 5.91653 11.7756ZM8.90654 15C8.90654 11.6345 11.6348 8.90625 15.0003 8.90625C18.3658 8.90625 21.094 11.6345 21.094 15C21.094 18.3655 18.3658 21.0938 15.0003 21.0938C11.6348 21.0938 8.90654 18.3655 8.90654 15ZM15.0003 11.7188C13.1881 11.7188 11.719 13.1878 11.719 15C11.719 16.8122 13.1881 18.2812 15.0003 18.2812C16.8125 18.2812 18.2815 16.8122 18.2815 15C18.2815 13.1878 16.8125 11.7188 15.0003 11.7188Z" />
</svg>
