<svg width="256" height="256" viewBox="0 0 256 256" fill="none" xmlns="http://www.w3.org/2000/svg">
<g clip-path="url(#clip0_411_321)">
<circle cx="128" cy="128" r="128" fill="white"/>
<g style="mix-blend-mode:exclusion">
<path fill-rule="evenodd" clip-rule="evenodd" d="M128 252C196.483 252 252 196.483 252 128C252 59.5167 196.483 4 128 4C59.5167 4 4 59.5167 4 128C4 196.483 59.5167 252 128 252ZM256 128C256 198.692 198.692 256 128 256C57.3075 256 0 198.692 0 128C0 57.3075 57.3075 0 128 0C198.692 0 256 57.3075 256 128Z" fill="white" fill-opacity="0.4"/>
</g>
<path d="M193.4 128.1L200.3 120L197.3 117.8L202.1 113.4L198.4 110.6L203.2 107L200.1 104.6L205.1 80.2L197.5 57.6M197.5 57.6L148.7 75.7H108L59.1996 57.6L51.5996 80.2L56.6996 104.6L53.4996 107L58.3996 110.6L54.6996 113.4L59.4996 117.8L56.4996 120L63.3996 128.1L52.8996 160.5L62.5996 193.6L96.6996 184.2L103.3 189.6L116.8 198.8H139.9L153.4 189.6L160 184.2L194.2 193.6L204 160.5L193.4 128.1" fill="#F5841F"/>
<path d="M197.5 57.6L137.6 101.7L148.7 75.7L197.5 57.6Z" fill="#E27625"/>
<path d="M59.1992 57.6L118.599 102.1L107.999 75.7L59.1992 57.6Z" fill="#E27625"/>
<path d="M176 159.9L160 184.1L194.2 193.5L204 160.4L176 159.9Z" fill="#E27625"/>
<path d="M52.8994 160.4L62.5994 193.5L96.6994 184.1L80.7994 159.9L52.8994 160.4Z" fill="#E27625"/>
<path d="M94.8994 118.9L85.3994 133.2L119.199 134.7L118.099 98.5L94.8994 118.9Z" fill="#E27625"/>
<path d="M161.9 118.9L138.3 98.1L137.6 134.7L171.4 133.2L161.9 118.9Z" fill="#E27625"/>
<path d="M96.6992 184.1L117.199 174.3L99.4992 160.7L96.6992 184.1Z" fill="#E27625"/>
<path d="M139.6 174.3L160 184.1L157.2 160.7L139.6 174.3Z" fill="#E27625"/>
<path d="M160 184.1L139.6 174.3L141.3 187.5L141.1 193.1L160 184.1Z" fill="#D7C1B3"/>
<path d="M96.6992 184.1L115.699 193.1L115.599 187.5L117.199 174.3L96.6992 184.1Z" fill="#D7C1B3"/>
<path d="M116 151.9L99.0996 147L111.1 141.5L116 151.9Z" fill="#2F343B"/>
<path d="M140.699 151.9L145.699 141.5L157.699 147L140.699 151.9Z" fill="#2F343B"/>
<path d="M96.6998 184.1L99.6998 159.9L80.7998 160.4L96.6998 184.1Z" fill="#CC6228"/>
<path d="M157.1 159.9L160 184.1L176 160.4L157.1 159.9Z" fill="#CC6228"/>
<path d="M171.4 133.2L137.6 134.7L140.7 151.9L145.7 141.5L157.7 147L171.4 133.2Z" fill="#CC6228"/>
<path d="M99.0994 147L111.099 141.5L115.999 151.9L119.199 134.7L85.3994 133.2L99.0994 147Z" fill="#CC6228"/>
<path d="M85.3994 133.2L99.4994 160.7L99.0994 147L85.3994 133.2Z" fill="#E27625"/>
<path d="M157.699 147L157.199 160.7L171.399 133.2L157.699 147Z" fill="#E27625"/>
<path d="M119.2 134.7L116 151.9L120 172.3L120.9 145.5L119.2 134.7Z" fill="#E27625"/>
<path d="M137.599 134.7L135.899 145.4L136.699 172.3L140.699 151.9L137.599 134.7Z" fill="#E27625"/>
<path d="M140.699 151.9L136.699 172.3L139.599 174.3L157.199 160.7L157.699 147L140.699 151.9Z" fill="#F5841F"/>
<path d="M99.0996 147L99.4996 160.7L117.2 174.3L120 172.3L116 151.9L99.0996 147Z" fill="#F5841F"/>
<path d="M141.099 193.1L141.299 187.5L139.699 186.2H116.999L115.599 187.5L115.699 193.1L96.6992 184.1L103.299 189.5L116.799 198.8H139.899L153.399 189.5L159.999 184.1L141.099 193.1Z" fill="#C0AD9E"/>
<path d="M139.6 174.3L136.7 172.3H120L117.2 174.3L115.6 187.5L117 186.2H139.7L141.3 187.5L139.6 174.3Z" fill="#2F343B"/>
<path d="M200.1 104.6L205.1 80.2L197.5 57.6L139.6 100.2L161.9 118.9L193.4 128.1L200.3 120L197.3 117.8L202.1 113.5L198.4 110.6L203.2 107L200.1 104.6Z" fill="#763E1A"/>
<path d="M51.5996 80.2L56.6996 104.6L53.4996 107L58.2996 110.7L54.5996 113.5L59.3996 117.8L56.3996 120L63.3996 128.1L94.8996 118.9L117.2 100.2L59.1996 57.6L51.5996 80.2Z" fill="#763E1A"/>
<path d="M193.399 128.1L161.899 118.9L171.399 133.2L157.199 160.7L175.999 160.4H203.999L193.399 128.1Z" fill="#F5841F"/>
<path d="M94.8994 118.9L63.3994 128.1L52.8994 160.4H80.7994L99.4994 160.7L85.3994 133.2L94.8994 118.9Z" fill="#F5841F"/>
<path d="M137.6 134.7L139.6 100.2L148.7 75.7H108L117.2 100.2L119.2 134.7L120 145.5V172.3H136.7L136.8 145.5L137.6 134.7Z" fill="#F5841F"/>
</g>
<defs>
<clipPath id="clip0_411_321">
<rect width="256" height="256" fill="white"/>
</clipPath>
</defs>
</svg>
